<?xml version="1.0" encoding="UTF-8" standalone="no"?>
<svg width="11px" height="12px" viewBox="0 0 11 12" version="1.1" xmlns="http://www.w3.org/2000/svg" xmlns:xlink="http://www.w3.org/1999/xlink">
    <!-- Generator: Sketch 3.6 (26304) - http://www.bohemiancoding.com/sketch -->
    <title>download</title>
    <desc>Created with Sketch.</desc>
    <defs></defs>
    <g id="-assets" stroke="none" stroke-width="1" fill="none" fill-rule="evenodd">
        <g id="icons" transform="translate(-90.000000, -40.000000)" fill="#11A9BE">
            <path d="M96.9548096,45.2577887 L92.9233064,41.6294358 C92.7180513,41.4447063 92.7014121,41.1285614 92.8861416,40.9233064 C93.0708712,40.7180513 93.3870161,40.7014121 93.5922711,40.8861416 L98.523166,45.3239471 C98.5847602,45.3593363 98.6381037,45.4074653 98.6796008,45.4647384 L99.0052123,45.7577887 L98.6796008,46.0508391 C98.6381037,46.1081121 98.5847602,46.1562411 98.523166,46.1916304 L93.5922711,50.6294358 C93.3870161,50.8141653 93.0708712,50.7975261 92.8861416,50.5922711 C92.7014121,50.3870161 92.7180513,50.0708712 92.9233064,49.8861416 L96.9548096,46.2577887 L90.2422113,46.2577887 C89.9660689,46.2577887 89.7422113,46.0339311 89.7422113,45.7577887 C89.7422113,45.4816463 89.9660689,45.2577887 90.2422113,45.2577887 L96.9548096,45.2577887 Z M100.257789,40.7577887 L100.257789,50.7577887 C100.257789,51.0339311 100.481646,51.2577887 100.757789,51.2577887 C101.033931,51.2577887 101.257789,51.0339311 101.257789,50.7577887 L101.257789,40.7577887 C101.257789,40.4816463 101.033931,40.2577887 100.757789,40.2577887 C100.481646,40.2577887 100.257789,40.4816463 100.257789,40.7577887 Z" id="download" transform="translate(95.500000, 45.757789) rotate(-270.000000) translate(-95.500000, -45.757789) "></path>
        </g>
    </g>
</svg>