<?xml version="1.0" encoding="UTF-8" standalone="no"?>
<svg width="15px" height="18px" viewBox="0 0 15 18" version="1.1" xmlns="http://www.w3.org/2000/svg" xmlns:xlink="http://www.w3.org/1999/xlink">
    <!-- Generator: Sketch 3.6 (26304) - http://www.bohemiancoding.com/sketch -->
    <title>file-pdf</title>
    <desc>Created with Sketch.</desc>
    <defs></defs>
    <g id="-assets" stroke="none" stroke-width="1" fill="none" fill-rule="evenodd">
        <g id="icons" transform="translate(-140.000000, -37.000000)" fill="#11A9BE">
            <path d="M155,41.5 L150.5,41.5 L150.5,37 L155,41.5 L155,41.5 Z M149,43 L149,37 L140,37 L140,55 L155,55 L155,43 L149,43 Z M143.336923,49.5454535 L144.172207,49.5454535 C145.059697,49.5454535 145.606952,48.9585944 145.606952,48.1701149 C145.606952,47.406838 145.0957,46.8271796 144.166807,46.8271796 L142.640253,46.8271796 L142.640253,51 L143.336923,51 L143.336923,49.5454535 Z M143.336923,48.9297915 L143.336923,47.4428417 L144.076798,47.4428417 C144.59345,47.4428417 144.903081,47.7074683 144.903081,48.1791158 C144.903081,48.6453628 144.602451,48.9297915 144.076798,48.9297915 L143.336923,48.9297915 Z M147.562654,51 C148.851584,51 149.575257,50.1017095 149.575257,48.9135898 C149.575257,47.7452721 148.874986,46.8271796 147.568054,46.8271796 L146.117108,46.8271796 L146.117108,51 L147.562654,51 Z M146.822779,50.3807376 L146.822779,47.446442 L147.478045,47.446442 C148.358334,47.446442 148.865985,47.892887 148.865985,48.9171902 C148.865985,49.9108903 148.388937,50.3807376 147.460044,50.3807376 L146.822779,50.3807376 Z M150.888293,49.2880275 L152.508457,49.2880275 L152.508457,48.6741657 L150.888293,48.6741657 L150.888293,47.4446418 L152.828889,47.4446418 L152.828889,46.8271796 L150.184423,46.8271796 L150.184423,51 L150.888293,51 L150.888293,49.2880275 Z" id="file-pdf"></path>
        </g>
    </g>
</svg>