<?xml version="1.0" encoding="UTF-8" standalone="no"?>
<svg width="11px" height="11px" viewBox="0 0 11 11" version="1.1" xmlns="http://www.w3.org/2000/svg" xmlns:xlink="http://www.w3.org/1999/xlink">
    <!-- Generator: Sketch 3.6 (26304) - http://www.bohemiancoding.com/sketch -->
    <title>link</title>
    <desc>Created with Sketch.</desc>
    <defs></defs>
    <g id="-assets" stroke="none" stroke-width="1" fill="none" fill-rule="evenodd">
        <g id="icons" transform="translate(-408.000000, -40.000000)" fill="#11A9BE">
            <path d="M410.835823,43.83614 C411.037031,43.64298 411.26024,43.4837 411.497656,43.35786 C412.820865,42.65782 414.517615,43.03006 415.368281,44.26822 L414.338865,45.25602 C414.043698,44.60966 413.310823,44.24182 412.581615,44.39846 C412.307073,44.45742 412.046281,44.58898 411.833156,44.79358 L409.86049,46.68822 C409.261448,47.2633 409.261448,48.19874 409.86049,48.77382 C410.459531,49.3489 411.433948,49.3489 412.03299,48.77382 L412.641198,48.18994 C413.194406,48.4007 413.78749,48.48474 414.37324,48.44294 L413.030781,49.7317 C411.879906,50.83654 410.014031,50.83654 408.863156,49.7317 C407.712281,48.62686 407.712281,46.83562 408.863156,45.73078 L410.835823,43.83614 L410.835823,43.83614 Z M413.96899,40.8283 L412.626531,42.11706 C413.211823,42.07482 413.805365,42.1593 414.358573,42.36962 L414.966323,41.78618 C415.565365,41.2111 416.539781,41.2111 417.138823,41.78618 C417.737865,42.36126 417.737865,43.2967 417.138823,43.87178 L415.165698,45.76598 C414.564823,46.34282 413.589031,46.33798 412.993198,45.76598 C412.854323,45.63266 412.734698,45.46678 412.65999,45.30354 L411.630573,46.29134 C411.73874,46.44886 411.851031,46.58482 411.995406,46.72342 C412.367573,47.0807 412.84149,47.3469 413.386906,47.47318 C414.093656,47.63642 414.850823,47.54622 415.501198,47.2017 C415.738615,47.07586 415.961823,46.91658 416.163031,46.72342 L418.135698,44.82922 C419.287031,43.72438 419.287031,41.93314 418.136156,40.8283 C416.985281,39.7239 415.119865,39.7239 413.96899,40.8283 L413.96899,40.8283 Z" id="link"></path>
        </g>
    </g>
</svg>