<?xml version="1.0" encoding="UTF-8" standalone="no"?>
<svg width="10px" height="10px" viewBox="0 0 10 10" version="1.1" xmlns="http://www.w3.org/2000/svg" xmlns:xlink="http://www.w3.org/1999/xlink">
    <!-- Generator: Sketch 3.6 (26304) - http://www.bohemiancoding.com/sketch -->
    <title>arrow-up</title>
    <desc>Created with Sketch.</desc>
    <defs></defs>
    <g id="-assets" stroke="none" stroke-width="1" fill="none" fill-rule="evenodd">
        <g id="icons" transform="translate(-154.000000, -40.000000)" fill="#11A9BE">
            <path d="M161.823313,44.5000043 L157.79181,40.8716514 C157.586555,40.6869219 157.569916,40.3707769 157.754645,40.1655219 C157.939375,39.9602669 158.25552,39.9436277 158.460775,40.1283572 L163.460775,44.6283572 L163.873716,45.0000043 L163.460775,45.3716514 L158.460775,49.8716514 C158.25552,50.0563809 157.939375,50.0397417 157.754645,49.8344867 C157.569916,49.6292317 157.586555,49.3130867 157.79181,49.1283572 L161.823313,45.5000043 L154.626293,45.5000043 C154.35015,45.5000043 154.126293,45.2761467 154.126293,45.0000043 C154.126293,44.7238619 154.35015,44.5000043 154.626293,44.5000043 L161.823313,44.5000043 Z" id="arrow-up" transform="translate(159.000004, 45.000004) rotate(-90.000000) translate(-159.000004, -45.000004) "></path>
        </g>
    </g>
</svg>