<?xml version="1.0" encoding="UTF-8" standalone="no"?>
<svg width="11px" height="12px" viewBox="0 0 11 12" version="1.1" xmlns="http://www.w3.org/2000/svg" xmlns:xlink="http://www.w3.org/1999/xlink">
    <!-- Generator: Sketch 3.6 (26304) - http://www.bohemiancoding.com/sketch -->
    <title>download</title>
    <desc>Created with Sketch.</desc>
    <defs></defs>
    <g id="-assets" stroke="none" stroke-width="1" fill="none" fill-rule="evenodd">
        <g id="icons" transform="translate(-244.000000, -40.000000)" fill="#11A9BE">
            <path d="M250.95481,45.2577887 L246.923306,41.6294358 C246.718051,41.4447063 246.701412,41.1285614 246.886142,40.9233064 C247.070871,40.7180513 247.387016,40.7014121 247.592271,40.8861416 L252.523166,45.3239471 C252.58476,45.3593363 252.638104,45.4074653 252.679601,45.4647384 L253.005212,45.7577887 L252.679601,46.0508391 C252.638104,46.1081121 252.58476,46.1562411 252.523166,46.1916304 L247.592271,50.6294358 C247.387016,50.8141653 247.070871,50.7975261 246.886142,50.5922711 C246.701412,50.3870161 246.718051,50.0708712 246.923306,49.8861416 L250.95481,46.2577887 L244.242211,46.2577887 C243.966069,46.2577887 243.742211,46.0339311 243.742211,45.7577887 C243.742211,45.4816463 243.966069,45.2577887 244.242211,45.2577887 L250.95481,45.2577887 Z M254.257789,40.7577887 L254.257789,50.7577887 C254.257789,51.0339311 254.481646,51.2577887 254.757789,51.2577887 C255.033931,51.2577887 255.257789,51.0339311 255.257789,50.7577887 L255.257789,40.7577887 C255.257789,40.4816463 255.033931,40.2577887 254.757789,40.2577887 C254.481646,40.2577887 254.257789,40.4816463 254.257789,40.7577887 Z" id="download" transform="translate(249.500000, 45.757789) rotate(-270.000000) translate(-249.500000, -45.757789) "></path>
        </g>
    </g>
</svg>