<?xml version="1.0" encoding="UTF-8" standalone="no"?>
<svg width="15px" height="18px" viewBox="0 0 15 18" version="1.1" xmlns="http://www.w3.org/2000/svg" xmlns:xlink="http://www.w3.org/1999/xlink">
    <!-- Generator: Sketch 3.6 (26304) - http://www.bohemiancoding.com/sketch -->
    <title>file-pdf</title>
    <desc>Created with Sketch.</desc>
    <defs></defs>
    <g id="-assets" stroke="none" stroke-width="1" fill="none" fill-rule="evenodd">
        <g id="icons" transform="translate(-294.000000, -37.000000)" fill="#11A9BE">
            <path d="M309,41.5 L304.5,41.5 L304.5,37 L309,41.5 L309,41.5 Z M303,43 L303,37 L294,37 L294,55 L309,55 L309,43 L303,43 Z M297.336923,49.5454535 L298.172207,49.5454535 C299.059697,49.5454535 299.606952,48.9585944 299.606952,48.1701149 C299.606952,47.406838 299.0957,46.8271796 298.166807,46.8271796 L296.640253,46.8271796 L296.640253,51 L297.336923,51 L297.336923,49.5454535 Z M297.336923,48.9297915 L297.336923,47.4428417 L298.076798,47.4428417 C298.59345,47.4428417 298.903081,47.7074683 298.903081,48.1791158 C298.903081,48.6453628 298.602451,48.9297915 298.076798,48.9297915 L297.336923,48.9297915 Z M301.562654,51 C302.851584,51 303.575257,50.1017095 303.575257,48.9135898 C303.575257,47.7452721 302.874986,46.8271796 301.568054,46.8271796 L300.117108,46.8271796 L300.117108,51 L301.562654,51 Z M300.822779,50.3807376 L300.822779,47.446442 L301.478045,47.446442 C302.358334,47.446442 302.865985,47.892887 302.865985,48.9171902 C302.865985,49.9108903 302.388937,50.3807376 301.460044,50.3807376 L300.822779,50.3807376 Z M304.888293,49.2880275 L306.508457,49.2880275 L306.508457,48.6741657 L304.888293,48.6741657 L304.888293,47.4446418 L306.828889,47.4446418 L306.828889,46.8271796 L304.184423,46.8271796 L304.184423,51 L304.888293,51 L304.888293,49.2880275 Z" id="file-pdf"></path>
        </g>
    </g>
</svg>