<?xml version="1.0" encoding="UTF-8" standalone="no"?>
<svg width="11px" height="11px" viewBox="0 0 11 11" version="1.1" xmlns="http://www.w3.org/2000/svg" xmlns:xlink="http://www.w3.org/1999/xlink">
    <!-- Generator: Sketch 3.6 (26304) - http://www.bohemiancoding.com/sketch -->
    <title>link</title>
    <desc>Created with Sketch.</desc>
    <defs></defs>
    <g id="-assets" stroke="none" stroke-width="1" fill="none" fill-rule="evenodd">
        <g id="icons" transform="translate(-562.000000, -40.000000)" fill="#11A9BE">
            <path d="M564.835823,43.83614 C565.037031,43.64298 565.26024,43.4837 565.497656,43.35786 C566.820865,42.65782 568.517615,43.03006 569.368281,44.26822 L568.338865,45.25602 C568.043698,44.60966 567.310823,44.24182 566.581615,44.39846 C566.307073,44.45742 566.046281,44.58898 565.833156,44.79358 L563.86049,46.68822 C563.261448,47.2633 563.261448,48.19874 563.86049,48.77382 C564.459531,49.3489 565.433948,49.3489 566.03299,48.77382 L566.641198,48.18994 C567.194406,48.4007 567.78749,48.48474 568.37324,48.44294 L567.030781,49.7317 C565.879906,50.83654 564.014031,50.83654 562.863156,49.7317 C561.712281,48.62686 561.712281,46.83562 562.863156,45.73078 L564.835823,43.83614 L564.835823,43.83614 Z M567.96899,40.8283 L566.626531,42.11706 C567.211823,42.07482 567.805365,42.1593 568.358573,42.36962 L568.966323,41.78618 C569.565365,41.2111 570.539781,41.2111 571.138823,41.78618 C571.737865,42.36126 571.737865,43.2967 571.138823,43.87178 L569.165698,45.76598 C568.564823,46.34282 567.589031,46.33798 566.993198,45.76598 C566.854323,45.63266 566.734698,45.46678 566.65999,45.30354 L565.630573,46.29134 C565.73874,46.44886 565.851031,46.58482 565.995406,46.72342 C566.367573,47.0807 566.84149,47.3469 567.386906,47.47318 C568.093656,47.63642 568.850823,47.54622 569.501198,47.2017 C569.738615,47.07586 569.961823,46.91658 570.163031,46.72342 L572.135698,44.82922 C573.287031,43.72438 573.287031,41.93314 572.136156,40.8283 C570.985281,39.7239 569.119865,39.7239 567.96899,40.8283 L567.96899,40.8283 Z" id="link"></path>
        </g>
    </g>
</svg>